<?xml version="1.0" encoding="UTF-8" standalone="no"?>
<!DOCTYPE svg PUBLIC "-//W3C//DTD SVG 1.1//EN"
 "http://www.w3.org/Graphics/SVG/1.1/DTD/svg11.dtd">
<!-- Generated by graphviz version 2.40.1 (20161225.0304)
 -->
<!-- Title: G Pages: 1 -->
<svg width="296pt" height="346pt"
 viewBox="0.00 0.00 296.00 346.00" xmlns="http://www.w3.org/2000/svg" xmlns:xlink="http://www.w3.org/1999/xlink">
<g id="graph0" class="graph" transform="scale(1 1) rotate(0) translate(4 342)">
<title>G</title>
<polygon fill="#ffffff" stroke="transparent" points="-4,4 -4,-342 292,-342 292,4 -4,4"/>
<!-- A0 -->
<g id="node1" class="node">
<title>A0</title>
<polygon fill="none" stroke="#000000" points="0,-306 0,-338 94,-338 94,-306 0,-306"/>
<text text-anchor="start" x="20.185" y="-319" font-family="Helvetica,sans-Serif" font-size="10.00" fill="#000000">+A:Acapella</text>
<polygon fill="none" stroke="#000000" points="0,-274 0,-306 94,-306 94,-274 0,-274"/>
<text text-anchor="start" x="9.632" y="-287" font-family="Helvetica,sans-Serif" font-size="10.00" fill="#000000">+voicePart:string</text>
<polygon fill="none" stroke="#000000" points="0,-218 0,-274 94,-274 94,-218 0,-218"/>
<text text-anchor="start" x="16.8655" y="-255" font-family="Helvetica,sans-Serif" font-size="10.00" fill="#000000">+WarmUp():a</text>
<text text-anchor="start" x="19.641" y="-231" font-family="Helvetica,sans-Serif" font-size="10.00" fill="#000000">+Critique():v</text>
</g>
<!-- A3 -->
<g id="node4" class="node">
<title>A3</title>
<polygon fill="none" stroke="#000000" points="68,-124 68,-156 148,-156 148,-124 68,-124"/>
<text text-anchor="start" x="86.7485" y="-137" font-family="Helvetica,sans-Serif" font-size="10.00" fill="#000000">+Member</text>
<polygon fill="none" stroke="#000000" points="68,-104 68,-124 148,-124 148,-104 68,-104"/>
<polygon fill="none" stroke="#000000" points="68,-12 68,-104 148,-104 148,-12 68,-12"/>
<text text-anchor="start" x="79.2445" y="-85" font-family="Helvetica,sans-Serif" font-size="10.00" fill="#000000">+LearnMusic</text>
<text text-anchor="start" x="91.7485" y="-61" font-family="Helvetica,sans-Serif" font-size="10.00" fill="#000000">+Sing()</text>
<text text-anchor="start" x="89.243" y="-49" font-family="Helvetica,sans-Serif" font-size="10.00" fill="#000000"> +Dance</text>
<text text-anchor="start" x="77.8655" y="-25" font-family="Helvetica,sans-Serif" font-size="10.00" fill="#000000">+WarmUp():o</text>
</g>
<!-- A0&#45;&gt;A3 -->
<g id="edge1" class="edge">
<title>A0&#45;&gt;A3</title>
<path fill="none" stroke="#000000" stroke-dasharray="5,2" d="M68.9686,-208.1327C74.2925,-191.2011 79.9934,-173.07 85.3482,-156.0403"/>
<polygon fill="#000000" stroke="#000000" points="65.883,-217.9458 64.5899,-207.0564 67.3828,-213.176 68.8826,-208.4062 68.8826,-208.4062 68.8826,-208.4062 67.3828,-213.176 73.1754,-209.7561 65.883,-217.9458 65.883,-217.9458"/>
</g>
<!-- A4 -->
<g id="node5" class="node">
<title>A4</title>
<polygon fill="none" stroke="#000000" points="166,-136 166,-168 246,-168 246,-136 166,-136"/>
<text text-anchor="start" x="186.9635" y="-149" font-family="Helvetica,sans-Serif" font-size="10.00" fill="#000000">+Eboard</text>
<polygon fill="none" stroke="#000000" points="166,-116 166,-136 246,-136 246,-116 166,-116"/>
<polygon fill="none" stroke="#000000" points="166,0 166,-116 246,-116 246,0 166,0"/>
<text text-anchor="start" x="177.2445" y="-97" font-family="Helvetica,sans-Serif" font-size="10.00" fill="#000000">+LearnMusic</text>
<text text-anchor="start" x="189.7485" y="-73" font-family="Helvetica,sans-Serif" font-size="10.00" fill="#000000">+Sing()</text>
<text text-anchor="start" x="187.243" y="-61" font-family="Helvetica,sans-Serif" font-size="10.00" fill="#000000"> +Dance</text>
<text text-anchor="start" x="175.8655" y="-37" font-family="Helvetica,sans-Serif" font-size="10.00" fill="#000000">+WarmUp():o</text>
<text text-anchor="start" x="181.6905" y="-13" font-family="Helvetica,sans-Serif" font-size="10.00" fill="#000000">+Critique:o</text>
</g>
<!-- A0&#45;&gt;A4 -->
<g id="edge2" class="edge">
<title>A0&#45;&gt;A4</title>
<path fill="none" stroke="#000000" stroke-dasharray="5,2" d="M101.3477,-219.6514C101.9002,-219.0974 102.4511,-218.5468 103,-218 126.1741,-194.9178 136.5363,-193.5159 157,-168 160.0632,-164.1805 163.0613,-160.1484 165.9695,-156.0009"/>
<polygon fill="#000000" stroke="#000000" points="94.1011,-227.0139 97.9087,-216.7303 97.6085,-223.4504 101.1159,-219.8869 101.1159,-219.8869 101.1159,-219.8869 97.6085,-223.4504 104.323,-223.0436 94.1011,-227.0139 94.1011,-227.0139"/>
</g>
<!-- A1 -->
<g id="node2" class="node">
<title>A1</title>
<polygon fill="none" stroke="#000000" points="113,-278 113,-310 204,-310 204,-278 113,-278"/>
<text text-anchor="start" x="122.7915" y="-291" font-family="Helvetica,sans-Serif" font-size="10.00" fill="#000000">+I:IExpectations</text>
<polygon fill="none" stroke="#000000" points="113,-246 113,-278 204,-278 204,-246 113,-246"/>
<text text-anchor="start" x="129.335" y="-259" font-family="Helvetica,sans-Serif" font-size="10.00" fill="#000000">LearnMusic()</text>
</g>
<!-- A1&#45;&gt;A3 -->
<g id="edge3" class="edge">
<title>A1&#45;&gt;A3</title>
<path fill="none" stroke="#000000" d="M147.1973,-236.0855C141.2039,-212.8312 133.5821,-183.2585 126.6559,-156.385"/>
<polygon fill="none" stroke="#000000" points="143.8584,-237.1548 149.7435,-245.9648 150.6369,-235.4077 143.8584,-237.1548"/>
</g>
<!-- A1&#45;&gt;A4 -->
<g id="edge4" class="edge">
<title>A1&#45;&gt;A4</title>
<path fill="none" stroke="#000000" d="M168.3802,-236.0467C173.2846,-216.2249 179.3232,-191.8187 185.1156,-168.4079"/>
<polygon fill="none" stroke="#000000" points="164.9306,-235.4169 165.9262,-245.9648 171.7257,-237.0982 164.9306,-235.4169"/>
</g>
<!-- A2 -->
<g id="node3" class="node">
<title>A2</title>
<polygon fill="none" stroke="#000000" points="222,-284 222,-316 288,-316 288,-284 222,-284"/>
<text text-anchor="start" x="231.5195" y="-297" font-family="Helvetica,sans-Serif" font-size="10.00" fill="#000000">+I:IActions</text>
<polygon fill="none" stroke="#000000" points="222,-240 222,-284 288,-284 288,-240 222,-240"/>
<text text-anchor="start" x="241.668" y="-265" font-family="Helvetica,sans-Serif" font-size="10.00" fill="#000000">Sing()</text>
<text text-anchor="start" x="235.8335" y="-253" font-family="Helvetica,sans-Serif" font-size="10.00" fill="#000000"> Dance()</text>
</g>
<!-- A2&#45;&gt;A3 -->
<g id="edge5" class="edge">
<title>A2&#45;&gt;A3</title>
<path fill="none" stroke="#000000" d="M224.2984,-231.7806C220.6429,-227.0052 216.841,-222.3238 213,-218 190.8406,-193.0552 178.1099,-193.839 157,-168 153.9023,-164.2084 150.8777,-160.1978 147.9492,-156.0667"/>
<polygon fill="none" stroke="#000000" points="221.5235,-233.9146 230.2932,-239.8596 227.145,-229.7433 221.5235,-233.9146"/>
</g>
<!-- A2&#45;&gt;A4 -->
<g id="edge6" class="edge">
<title>A2&#45;&gt;A4</title>
<path fill="none" stroke="#000000" d="M242.8692,-229.9718C238.1659,-211.3505 232.6381,-189.4652 227.3145,-168.3881"/>
<polygon fill="none" stroke="#000000" points="239.4768,-230.8335 245.3192,-239.6718 246.2637,-229.1192 239.4768,-230.8335"/>
</g>
</g>
</svg>
